# xmcd
#
# Track frame offsets: 
#        150
#        13537
#        30150
#        74361
#        111767
#
# Disc length: 1801 seconds
#
# Revision: 0
# Processed by: cddbd v1.4PL0 Copyright (c) Steve Scherf et al.
# Submitted via: ExactAudioCopy v0.90b4
#
DISCID=32070705
DTITLE=Van Morrison - Remembering Lonnie, disc 2
DYEAR=2003
DGENRE=Celtic
TTITLE0=Precious Time
TTITLE1=Jackie Wilson Said ...
TTITLE2=It's All In The Game > You Know What They're Writing About > R
TTITLE2=ainbow 65 > Make It Real One More Time > No Prima Donna
TTITLE3=Did Ye Get Healed ? > Yeh Yeh
TTITLE4=Gloria
EXTD=
EXTT0=
EXTT1=
EXTT2=
EXTT3=
EXTT4=
PLAYORDER=
